# xmcd
#
# Track frame offsets: 
#        150
#        15919
#        33773
#        52054
#        69584
#        86830
#        104639
#        123153
#        136790
#        150915
#        163555
#        181258
#
# Disc length: 2697 seconds
#
# Revision: 0
# Processed by: cddbd v1.5.2PL0 Copyright (c) Steve Scherf et al.
# Submitted via: ExactAudioCopy v0.95b4
#
DISCID=8d0a870c
DTITLE=David 'Honeyboy' Edwards - Blues, Blues
DYEAR=2005
DGENRE=Blues
TTITLE0=Catfish Blues
TTITLE1=Bad Rooster
TTITLE2=Blues, Blues
TTITLE3=Sweet Home Chicago
TTITLE4=Key To The Highway
TTITLE5=Bumble Bee
TTITLE6=Louise
TTITLE7=Kansas City
TTITLE8=Drop Down Mama
TTITLE9=I Love You Baby
TTITLE10=Take Me In Your Arms
TTITLE11=When You Get Lonesome
EXTD=
EXTT0=
EXTT1=
EXTT2=
EXTT3=
EXTT4=
EXTT5=
EXTT6=
EXTT7=
EXTT8=
EXTT9=
EXTT10=
EXTT11=
PLAYORDER=
